#!OML:ASF F:\VICON\USERDATA\INSTALL\rory3\rory3.ASF
:FULLY-SPECIFIED
:DEGREES
3575
root 0.658788 17.5814 2.84541 9.14255 26.8809 -8.95223
lowerback 8.73627 4.12566 -2.41009
upperback -0.350165 5.1187 -2.33851
thorax -5.25244 2.55773 -1.76087
lowerneck -26.6079 -13.5339 -9.96743
upperneck 8.14748 -17.4232 15.7408
head 9.14907 -7.00988 4.05318
rclavicle 3.33958e-014 -7.95139e-015
rhumerus 70.1399 -5.55812 -13.0457
rradius 48.6439
rwrist 54.4856
rhand -52.9983 -8.12583
rfingers 7.12502
rthumb -25.4642 -36.4447
lclavicle 3.33958e-014 -7.95139e-015
lhumerus -34.7861 9.08631 68.0194
lradius 47.7136
lwrist -4.87981
lhand -18.4081 25.1677
lfingers 7.12502
lthumb 7.87643 415.001
rfemur -15.026 -15.6676 18.923
rtibia 25.3265
rfoot -18.8381 -12.3405
rtoes 2.8563
lfemur -33.2355 -0.67683 -5.85511
ltibia 38.9885
lfoot -15.9104 -5.96099
ltoes -19.1944
3576
root 0.634822 17.5822 2.84133 9.12992 26.5172 -8.92793
lowerback 8.77676 4.08338 -2.43275
upperback -0.327064 5.06062 -2.30319
thorax -5.25657 2.52989 -1.70604
lowerneck -26.5161 -13.5103 -9.99428
upperneck 8.13577 -17.4088 15.8351
head 9.14347 -7.0009 4.09451
rclavicle 8.0309e-014 -3.02153e-014
rhumerus 69.8855 -5.56643 -12.9155
rradius 48.9207
rwrist 54.4495
rhand -53.068 -8.26394
rfingers 7.12502
rthumb -25.5309 -36.5732
lclavicle 8.0309e-014 -3.02153e-014
lhumerus -34.8476 8.93514 68.1224
lradius 47.7641
lwrist -4.39184
lhand -19.0917 25.2153
lfingers 7.12502
lthumb 7.21666 415.072
rfemur -15.3032 -15.8534 18.9797
rtibia 25.6311
rfoot -18.4677 -12.0356
rtoes 2.65895
lfemur -33.0693 -0.436246 -5.8412
ltibia 38.867
lfoot -15.8532 -5.7969
ltoes -19.6002
3577
root 0.605048 17.5841 2.83352 9.10766 26.2486 -8.866
lowerback 8.92749 4.06042 -2.51231
upperback -0.316401 5.01826 -2.24415
thorax -5.34271 2.51109 -1.60699
lowerneck -26.4298 -13.5446 -10.1491
upperneck 8.12567 -17.4421 15.9891
head 9.16349 -7.01152 4.16438
rclavicle 4.6118e-014 -3.33958e-014
rhumerus 69.4605 -5.60082 -12.8477
rradius 49.2029
rwrist 54.9768
rhand -53.1964 -8.49087
rfingers 7.12502
rthumb -25.6538 -36.7825
lclavicle 4.6118e-014 -3.33958e-014
lhumerus -34.9114 8.87947 68.1426
lradius 47.7103
lwrist -4.60686
lhand -17.8978 25.6696
lfingers 7.12502
lthumb 8.369 415.484
rfemur -15.5484 -15.9269 19.0147
rtibia 25.9267
rfoot -18.2638 -11.8403
rtoes 2.50241
lfemur -32.9335 -0.341351 -5.82263
ltibia 38.7401
lfoot -15.754 -5.59309
ltoes -19.9837
3578
root 0.579015 17.5886 2.82351 9.15258 25.9666 -8.72615
lowerback 9.00178 4.00541 -2.60232
upperback -0.298111 4.93307 -2.23708
thorax -5.37398 2.47129 -1.54337
lowerneck -26.4822 -13.5583 -10.0444
upperneck 8.23151 -17.4948 15.9131
head 9.19661 -7.03346 4.10995
rclavicle 1.59028e-015 1.43125e-014
rhumerus 69.054 -5.65141 -12.7391
rradius 49.45
rwrist 55.4551
rhand -53.4393 -8.91106
rfingers 7.12502
rthumb -25.8865 -37.1689
lclavicle 1.59028e-015 1.43125e-014
lhumerus -34.9977 8.92085 67.9999
lradius 47.6473
lwrist -5.26995
lhand -16.512 25.1728
lfingers 7.12502
lthumb 9.70618 414.929
rfemur -15.8446 -15.9287 18.9654
rtibia 26.2312
rfoot -18.0793 -11.7401
rtoes 2.00434
lfemur -32.8064 -0.404751 -5.84857
ltibia 38.6055
lfoot -15.6312 -5.31333
ltoes -19.9393
3579
root 0.553103 17.5904 2.81638 9.14269 25.6461 -8.66418
lowerback 8.99045 3.91634 -2.6239
upperback -0.217813 4.81684 -2.20245
thorax -5.28826 2.41493 -1.47428
lowerneck -26.6365 -13.5185 -9.84741
upperneck 8.365 -17.4828 15.7518
head 9.22839 -7.02443 4.02362
rclavicle 1.19271e-014 -1.59028e-014
rhumerus 68.8245 -5.7155 -12.6426
rradius 49.6057
rwrist 55.5068
rhand -53.7006 -9.00815
rfingers 7.12502
rthumb -26.1367 -37.2292
lclavicle 1.19271e-014 -1.59028e-014
lhumerus -34.9722 8.79183 67.9856
lradius 47.5225
lwrist -5.00036
lhand -16.9486 24.6088
lfingers 7.12502
lthumb 9.28491 414.384
rfemur -16.1114 -15.9213 18.972
rtibia 26.5628
rfoot -18.0402 -11.574
rtoes 1.71237
lfemur -32.6256 -0.330862 -5.82896
ltibia 38.4452
lfoot -15.5266 -5.063
ltoes -20.19
3580
root 0.524613 17.5921 2.81074 9.07896 25.2958 -8.57082
lowerback 9.07131 3.8468 -2.70114
upperback -0.151791 4.71639 -2.16145
thorax -5.2743 2.36749 -1.37804
lowerneck -26.5783 -13.4918 -9.83712
upperneck 8.3613 -17.4669 15.8064
head 9.22239 -7.01542 4.04548
rclavicle 3.57812e-014 -1.11319e-014
rhumerus 68.5537 -5.71921 -12.5677
rradius 49.7118
rwrist 55.3954
rhand -53.9432 -8.83684
rfingers 7.12502
rthumb -26.3689 -37.0234
lclavicle 3.57812e-014 -1.11319e-014
lhumerus -35.0162 8.60071 68.0232
lradius 47.497
lwrist -4.49015
lhand -17.6754 24.782
lfingers 7.12502
lthumb 8.5836 414.588
rfemur -16.3013 -15.9432 18.9413
rtibia 26.8941
rfoot -17.9795 -11.3667
rtoes 1.43041
lfemur -32.3609 -0.193028 -5.8412
ltibia 38.2752
lfoot -15.4668 -4.89366
ltoes -20.3358
3581
root 0.495779 17.5939 2.80111 9.11119 24.9973 -8.34842
lowerback 9.17251 3.79339 -2.85846
upperback -0.131743 4.62445 -2.15981
thorax -5.32287 2.32594 -1.28336
lowerneck -26.354 -13.524 -9.97041
upperneck 8.2455 -17.5234 16.0707
head 9.19968 -7.03713 4.14949
rclavicle 4.37326e-015 -2.06736e-014
rhumerus 68.0723 -5.73806 -12.3087
rradius 49.9104
rwrist 55.1717
rhand -54.2984 -9.02886
rfingers 7.12502
rthumb -26.7089 -37.164
lclavicle 4.37326e-015 -2.06736e-014
lhumerus -35.0417 8.64685 67.9418
lradius 47.4378
lwrist -4.79688
lhand -17.1691 24.8178
lfingers 7.12502
lthumb 9.07216 414.603
rfemur -16.508 -16.0679 18.7905
rtibia 27.1922
rfoot -17.8182 -11.0673
rtoes 1.67275
lfemur -32.1776 -0.168243 -5.97807
ltibia 38.1307
lfoot -15.4137 -4.66643
ltoes -20.6253
3582
root 0.467221 17.5946 2.78999 9.27108 24.7069 -8.16356
lowerback 9.12086 3.70304 -2.94936
upperback -0.150252 4.4973 -2.14357
thorax -5.32122 2.26608 -1.19564
lowerneck -26.1538 -13.4926 -10.0215
upperneck 8.1122 -17.4883 16.2072
head 9.13975 -7.02664 4.2173
rclavicle 5.12864e-014 -6.36111e-015
rhumerus 67.5805 -5.75428 -12.0353
rradius 50.2049
rwrist 55.091
rhand -54.7338 -9.73957
rfingers 7.12502
rthumb -27.1255 -37.8105
lclavicle 5.12864e-014 -6.36111e-015
lhumerus -35.0413 8.78366 67.8436
lradius 47.2718
lwrist -5.19157
lhand -16.7914 24.7212
lfingers 7.12502
lthumb 9.4366 414.49
rfemur -16.8801 -16.1176 18.724
rtibia 27.4785
rfoot -17.7208 -10.8432
rtoes 2.00257
lfemur -32.1735 -0.209563 -6.0487
ltibia 37.9974
lfoot -15.3444 -4.34895
ltoes -20.8878
3583
root 0.434303 17.5925 2.78198 9.20703 24.3987 -8.29431
lowerback 9.17808 3.64324 -2.81809
upperback -0.138362 4.43523 -2.0307
thorax -5.33927 2.23325 -1.1458
lowerneck -26.2104 -13.5198 -10.048
upperneck 8.19224 -17.5291 16.2239
head 9.18597 -7.03864 4.21568
rclavicle -2.38542e-015 4.13472e-014
rhumerus 67.0906 -5.80349 -11.8259
rradius 50.4343
rwrist 55.1896
rhand -55.0411 -9.97308
rfingers 7.12502
rthumb -27.4194 -37.9978
lclavicle -2.38542e-015 4.13472e-014
lhumerus -35.0583 8.77397 67.8962
lradius 47.2102
lwrist -5.3658
lhand -17.1611 24.7795
lfingers 7.12502
lthumb 9.07994 414.564
rfemur -17.1412 -16.0729 18.9823
rtibia 27.753
rfoot -17.6612 -10.6266
rtoes 1.52247
lfemur -32.0533 -0.0907698 -5.78855
ltibia 37.8793
lfoot -15.2591 -4.21109
ltoes -20.7671
3584
root 0.399912 17.592 2.77435 9.14461 24.0772 -8.26894
lowerback 9.27788 3.60023 -2.82794
upperback -0.0999088 4.378 -1.94148
thorax -5.3624 2.20599 -1.04483
lowerneck -26.2627 -13.5899 -10.13
upperneck 8.32486 -17.6206 16.2451
head 9.26164 -7.07342 4.21277
rclavicle 1.59028e-015 7.15625e-014
rhumerus 66.6092 -5.82786 -11.6383
rradius 50.6022
rwrist 55.1904
rhand -55.2487 -9.56681
rfingers 7.12502
rthumb -27.618 -37.5599
lclavicle 1.59028e-015 7.15625e-014
lhumerus -34.9897 8.77945 67.9357
lradius 47.0459
lwrist -5.58176
lhand -17.3754 24.7464
lfingers 7.12502
lthumb 8.8731 414.54
rfemur -17.297 -16.1068 19.0512
rtibia 27.9759
rfoot -17.5303 -10.3641
rtoes 1.23295
lfemur -31.865 0.0216268 -5.69594
ltibia 37.7664
lfoot -15.1744 -4.05914
ltoes -20.7119
3585
root 0.369046 17.5915 2.76542 9.21135 23.7717 -8.07668
lowerback 9.32063 3.527 -2.89075
upperback -0.0923044 4.27302 -1.9235
thorax -5.3837 2.15608 -0.97913
lowerneck -26.3059 -13.6434 -10.2914
upperneck 8.49668 -17.6953 16.3885
head 9.37057 -7.08932 4.26607
rclavicle 9.10434e-014 -4.92986e-014
rhumerus 66.1495 -5.80274 -11.5351
rradius 50.7586
rwrist 55.0481
rhand -55.3333 -8.90024
rfingers 7.12502
rthumb -27.6989 -36.8804
lclavicle 9.10434e-014 -4.92986e-014
lhumerus -34.9598 8.85984 67.8278
lradius 46.7213
lwrist -5.6281
lhand -17.737 24.0061
lfingers 7.12502
lthumb 8.52417 413.814
rfemur -17.4973 -16.1789 18.9492
rtibia 28.1522
rfoot -17.3252 -10.1333
rtoes 1.02614
lfemur -31.765 0.107791 -5.80187
ltibia 37.6659
lfoot -15.1209 -3.83692
ltoes -21.273
3586
root 0.339038 17.5904 2.75863 9.26232 23.3897 -7.90945
lowerback 9.27546 3.46325 -2.94385
upperback -0.0543836 4.18605 -1.91613
thorax -5.32209 2.11454 -0.924869
lowerneck -26.4142 -13.6149 -10.1221
upperneck 8.6695 -17.7009 16.232
head 9.41383 -7.08916 4.1827
rclavicle 4.37326e-014 3.49861e-014
rhumerus 65.6566 -5.80013 -11.3168
rradius 50.9696
rwrist 54.5821
rhand -55.6073 -8.85012
rfingers 7.12502
rthumb -27.9608 -36.7878
lclavicle 4.37326e-014 3.49861e-014
lhumerus -34.9655 8.82177 67.7582
lradius 46.7507
lwrist -5.84252
lhand -17.4182 24.3869
lfingers 7.12502
lthumb 8.83179 414.182
rfemur -17.6849 -16.0355 18.839
rtibia 28.3401
rfoot -17.3552 -9.82466
rtoes 2.01222
lfemur -31.6039 0.166436 -5.867
ltibia 37.5311
lfoot -15.0222 -3.54241
ltoes -21.5876
3587
root 0.305587 17.5869 2.75441 9.15703 22.9504 -7.87988
lowerback 9.29619 3.43602 -2.95062
upperback 0.0371136 4.15571 -1.81675
thorax -5.24522 2.10021 -0.810768
lowerneck -26.5481 -13.6601 -10.038
upperneck 8.92038 -17.7804 16.0304
head 9.4992 -7.12593 4.07944
rclavicle -5.24792e-014 2.22639e-014
rhumerus 65.1708 -5.84364 -10.9728
rradius 51.0786
rwrist 54.2245
rhand -56.2976 -9.16751
rfingers 7.12502
rthumb -28.6206 -36.9959
lclavicle -5.24792e-014 2.22639e-014
lhumerus -34.9637 8.67607 67.858
lradius 46.8344
lwrist -5.74458
lhand -17.6475 24.6744
lfingers 7.12502
lthumb 8.61055 414.479
rfemur -17.7463 -15.8511 18.8512
rtibia 28.4927
rfoot -17.3712 -9.53248
rtoes 2.45158
lfemur -31.2966 0.242152 -5.76592
ltibia 37.3969
lfoot -14.9989 -3.25256
ltoes -21.8149
3588
root 0.269889 17.5856 2.75004 9.13454 22.5122 -7.67134
lowerback 9.3347 3.39135 -3.11835
upperback 0.106868 4.08133 -1.75646
thorax -5.2091 2.06782 -0.644113
lowerneck -26.7322 -13.7729 -10.1496
upperneck 9.33531 -17.942 15.9862
head 9.69876 -7.18085 4.03697
rclavicle -8.42847e-014 1.43125e-014
rhumerus 64.7424 -5.89016 -10.8091
rradius 51.0517
rwrist 54.3633
rhand -57.0174 -9.25898
rfingers 7.12502
rthumb -29.3081 -36.9693
lclavicle -8.42847e-014 1.43125e-014
lhumerus -35.0227 8.60256 67.913
lradius 46.8599
lwrist -5.59814
lhand -17.875 25.1083
lfingers 7.12502
lthumb 8.39099 414.922
rfemur -17.8038 -15.7255 18.6896
rtibia 28.6014
rfoot -17.2121 -9.30344
rtoes 2.18679
lfemur -30.9965 0.294688 -5.8502
ltibia 37.2443
lfoot -14.945 -2.93166
ltoes -21.9744
3589
root 0.238148 17.5874 2.74505 9.09459 22.1399 -7.54702
lowerback 9.3564 3.3188 -3.08247
upperback 0.163788 3.99031 -1.74001
thorax -5.15869 2.02178 -0.632916
lowerneck -26.8387 -13.7361 -10.1387
upperneck 9.43709 -17.909 16.0164
head 9.75057 -7.15201 4.04858
rclavicle 5.64548e-014 1.11319e-014
rhumerus 64.2686 -5.96423 -11.0064
rradius 51.0687
rwrist 55.2111
rhand -57.3423 -9.79179
rfingers 7.12502
rthumb -29.6182 -37.4475
lclavicle 5.64548e-014 1.11319e-014
lhumerus -35.0661 8.4629 67.8904
lradius 46.955
lwrist -5.54963
lhand -17.9908 25.7879
lfingers 7.12502
lthumb 8.27922 415.606
rfemur -17.8619 -15.7112 18.6161
rtibia 28.6878
rfoot -17.058 -9.08077
rtoes 1.48859
lfemur -30.7446 0.339915 -5.8691
ltibia 37.1008
lfoot -14.9355 -2.64156
ltoes -22.4801
